# xmcd
#
# Track frame offsets:
#	150
#	22054
#	52176
#	82486
#	104815
#	126589
#	153562
#	172082
#	193027
#	214638
#	245591
#	284015
#	312131
#
# Disc length: 4648 seconds
#
# Revision: 1
# Processed by: cddbd v1.5.2PL0 Copyright (c) Steve Scherf et al.
# Submitted via: audiograbber 1.83.01
#
DISCID=d612260d
DTITLE=va - Hadra Team - Hadra - Trance Festival - Disc One
DYEAR=1900
DGENRE=psytrance
TTITLE0=Systphe - Catch the Worlds
TTITLE1=Sleeping Forest - Hope
TTITLE2=Astral Waves - Gayatri
TTITLE3=MKF (Trio) - Orfase
TTITLE4=Tor.Ma in Dub - Night Dub
TTITLE5=B-Brain - Killa Set
TTITLE6=Sa Bat' Machines - Mariutza
TTITLE7=Uzul - Fire
TTITLE8=Dubmentalist - Nobody's Perfect
TTITLE9=Digidep - Partial Impact
TTITLE10=Lakay - Sunny
TTITLE11=James Copeland - Got the Blues
TTITLE12=Arketype - Aurora
EXTD=
EXTT0=
EXTT1=
EXTT2=
EXTT3=
EXTT4=
EXTT5=
EXTT6=
EXTT7=
EXTT8=
EXTT9=
EXTT10=
EXTT11=
EXTT12=
PLAYORDER=
